PathFileType	4	(X/Y/Z)	/Users/itak/Documents/Research/Walk-IL/dataset/trc/00373_00011.trc
DataRate	CameraRate	NumFrames	NumMarkers	Units	OrigDataRate	OrigDataStartFrame	OrigNumFrames
100.000000	100.000000	4	54	mm	100.000000	137	548
Frame#	Time	RPSI			LPSI			L3			STRN			T10			C7			CLAV			RBAK			LBAK			LSHO			LUPA			LAEL			LAOL			LWTS			LWPS			LFRA			LHPS			LHTS			RSHO			RUPA			RAEL			RAOL			RWTS			RWPS			RFRA			RIFD			RHTS			RHPS			RBHD			LFHD			RFHD			LBHD			LHIP			RHIP			RASI			LASI			LKNE			LTHI			LANK			LTIP			LTOE			LMT1			LMT5			LHEE			RKNE			RTHI			RANK			RTIP			RTOE			RMT1			RMT5			RHEE			LIFD			*53			
		X1	Y1	Z1	X2	Y2	Z2	X3	Y3	Z3	X4	Y4	Z4	X5	Y5	Z5	X6	Y6	Z6	X7	Y7	Z7	X8	Y8	Z8	X9	Y9	Z9	X10	Y10	Z10	X11	Y11	Z11	X12	Y12	Z12	X13	Y13	Z13	X14	Y14	Z14	X15	Y15	Z15	X16	Y16	Z16	X17	Y17	Z17	X18	Y18	Z18	X19	Y19	Z19	X20	Y20	Z20	X21	Y21	Z21	X22	Y22	Z22	X23	Y23	Z23	X24	Y24	Z24	X25	Y25	Z25	X26	Y26	Z26	X27	Y27	Z27	X28	Y28	Z28	X29	Y29	Z29	X30	Y30	Z30	X31	Y31	Z31	X32	Y32	Z32	X33	Y33	Z33	X34	Y34	Z34	X35	Y35	Z35	X36	Y36	Z36	X37	Y37	Z37	X38	Y38	Z38	X39	Y39	Z39	X40	Y40	Z40	X41	Y41	Z41	X42	Y42	Z42	X43	Y43	Z43	X44	Y44	Z44	X45	Y45	Z45	X46	Y46	Z46	X47	Y47	Z47	X48	Y48	Z48	X49	Y49	Z49	X50	Y50	Z50	X51	Y51	Z51	X52	Y52	Z52	X53	Y53	Z53	X54	Y54	Z54	

138	1.37	-1189.228271484375	985.388427734375	-34.20737075805664	-1188.689697265625	986.1594848632812	-163.4714660644531	-1185.837768554688	1034.728637695312	-95.99746704101562	-964.00146484375	1224.379150390625	-101.2345275878906	-1198.550903320312	1148.2373046875	-112.708984375	-1169.688598632812	1399.119995117188	-129.7379455566406	-1011.121398925781	1349.803344726562	-109.8343124389648	-1213.771240234375	1257.484985351562	-64.18857574462891	-1172.483642578125	1360.537109375	-231.27783203125	-1083.029052734375	1380.682373046875	-280.7568664550781	-1093.280517578125	1257.782104492188	-345.8760070800781	-1073.748413085938	1053.773559570312	-350.6614685058594	-1140.822265625	1041.369506835938	-300.6424255371094	-981.7096557617188	813.898681640625	-290.935302734375	-1015.292663574219	800.994140625	-350.576904296875	-1057.272216796875	949.6837158203125	-353.6586303710938	-1019.024536132812	730.6231689453125	-342.0705871582031	-969.105224609375	734.3800048828125	-301.6722412109375	-1127.260375976562	1391.426635742188	38.01610946655273	-1140.834594726562	1327.384765625	101.7119445800781	-1124.737182617188	1060.730712890625	142.4250946044922	-1157.707153320312	1051.220581054688	53.58191299438477	-1005.64404296875	834.86279296875	105.1654510498047	-1043.321166992188	820.1495971679688	172.8175201416016	-1098.151245117188	994.4710693359375	154.6447906494141	-987.150146484375	663.037109375	117.4912033081055	-975.7632446289062	734.5278930664062	123.5906524658203	-1026.14306640625	737.0911254882812	171.98046875	-1141.364624023438	1607.417114257812	-41.68144607543945	-955.5704345703125	1624.3388671875	-136.2891540527344	-979.0993041992188	1621.3193359375	-37.94585800170898	-1134.96630859375	1606.60009765625	-186.0927429199219	-1104.534912109375	922.754150390625	-265.9884643554688	-1115.335693359375	927.147216796875	76.71922302246094	-1007.357055664062	948.1550903320312	34.91025161743164	-983.2840576171875	942.9807739257812	-203.8337554931641	-1111.468139648438	464.2015380859375	-246.0552673339844	-1092.163940429688	601.9609985351562	-256.6846618652344	-1219.988403320312	48.2891731262207	-227.9616088867188	-1168.089599609375	251.0158843994141	-250.0124969482422	-1015.102661132812	44.49755477905273	-163.1059875488281	-1084.042236328125	37.01662826538086	-122.9234237670898	-1094.213989257812	42.23451614379883	-237.6783752441406	-1254.356201171875	46.61795806884766	-160.6582489013672	-1138.284912109375	462.56494140625	72.79930114746094	-1067.122436523438	715.5363159179688	87.77311706542969	-1217.646606445312	51.8648681640625	62.26252746582031	-1142.44140625	345.5340881347656	67.56533050537109	-1030.281372070312	50.15689849853516	-5.265907287597656	-1088.777587890625	44.27661895751953	-41.37426376342773	-1114.032958984375	39.06554794311523	73.73490905761719	-1271.548950195312	53.53635025024414	18.8850269317627	-978.9776000976562	650.4348754882812	-280.1311645507812	nan	nan	nan	
139	1.38	-1188.093994140625	985.4237060546875	-34.89601516723633	-1187.739379882812	986.207275390625	-164.1751861572266	-1184.732543945312	1034.69140625	-96.69242095947266	-962.9436645507812	1224.274047851562	-102.0013656616211	-1197.495361328125	1148.150146484375	-113.4002075195312	-1168.713134765625	1399.071044921875	-130.3528442382812	-1010.12060546875	1349.700561523438	-110.5445251464844	-1212.683471679688	1257.351928710938	-64.846923828125	-1171.531005859375	1360.499267578125	-231.8994750976562	-1082.081787109375	1380.665771484375	-281.4200134277344	-1092.44677734375	1257.7822265625	-346.6089782714844	-1073.0712890625	1053.71484375	-351.3049011230469	-1140.120483398438	1041.413452148438	-301.2868347167969	-981.6978759765625	813.4935302734375	-291.2781372070312	-1014.987060546875	800.7715454101562	-350.9930114746094	-1056.701904296875	949.6035766601562	-354.2034301757812	-1018.956115722656	730.4356689453125	-342.4349670410156	-969.2396240234375	733.8936767578125	-301.8575744628906	-1126.211059570312	1391.27197265625	37.34002685546875	-1139.806030273438	1327.270874023438	101.0416870117188	-1124.194580078125	1060.680419921875	141.8015289306641	-1156.9658203125	1051.150512695312	52.933837890625	-1004.978637695312	834.8792114257812	104.9028396606445	-1042.865966796875	819.9400634765625	172.4751586914062	-1097.629150390625	994.3932495117188	154.1320037841797	-986.5303955078125	662.9441528320312	117.095458984375	-975.1583862304688	734.4462890625	123.4101486206055	-1025.662841796875	737.1363525390625	171.6422882080078	-1140.110717773438	1607.386352539062	-42.03103637695312	-954.3276977539062	1623.96728515625	-136.6622161865234	-977.847900390625	1620.883544921875	-38.35847854614258	-1133.741821289062	1606.751831054688	-186.474609375	-1103.638916015625	922.6859741210938	-266.7313842773438	-1114.187866210938	927.1130981445312	75.92318725585938	-1006.247314453125	947.999755859375	34.00477600097656	-982.4939575195312	942.8147583007812	-204.7886352539062	-1111.157348632812	464.0724182128906	-246.5527648925781	-1091.763671875	601.8507080078125	-257.2809448242188	-1219.987915039062	48.27192687988281	-227.9987945556641	-1167.900634765625	250.8963928222656	-250.2552337646484	-1015.158325195312	44.55792617797852	-163.1006317138672	-1084.007934570312	37.07148742675781	-122.9459915161133	-1094.228149414062	42.23043441772461	-237.6964569091797	-1254.356811523438	46.62900161743164	-160.6805419921875	-1136.8837890625	462.5294189453125	72.66899108886719	-1066.01025390625	715.52783203125	87.20274353027344	-1217.766357421875	51.7040901184082	62.54381942749023	-1141.387451171875	345.3830871582031	67.55544281005859	-1030.414794921875	50.31278228759766	-5.249207496643066	-1088.89599609375	44.5236930847168	-41.22526168823242	-1114.05859375	38.94765853881836	73.87835693359375	-1271.709106445312	53.50004959106445	19.19507789611816	-979.4142456054688	650.0679931640625	-280.2802429199219	nan	nan	nan	
140	1.39	-1186.964233398438	985.4379272460938	-35.62584686279297	-1186.776977539062	986.2367553710938	-164.9097900390625	-1183.624267578125	1034.6533203125	-97.43390655517578	-961.8695678710938	1224.17724609375	-102.8260116577148	-1196.419921875	1148.0751953125	-114.1400299072266	-1167.719604492188	1399.027954101562	-131.0204925537109	-1009.088073730469	1349.60986328125	-111.3096771240234	-1211.574462890625	1257.224731445312	-65.55329895019531	-1170.545043945312	1360.471313476562	-232.5681304931641	-1081.108032226562	1380.659912109375	-282.130615234375	-1091.572875976562	1257.803100585938	-347.3894348144531	-1072.302612304688	1053.662109375	-351.9958801269531	-1139.34814453125	1041.462036132812	-302.0093383789062	-981.4859008789062	813.2009887695312	-291.7391662597656	-1014.549621582031	800.577880859375	-351.4781188964844	-1056.01806640625	949.5430908203125	-354.8132934570312	-1018.77978515625	730.2894287109375	-342.8844299316406	-969.2539672851562	733.4278564453125	-302.1430358886719	-1125.135009765625	1391.127197265625	36.62116622924805	-1138.777099609375	1327.171020507812	100.3188323974609	-1123.685913085938	1060.645751953125	141.1559448242188	-1156.218017578125	1051.093139648438	52.25986099243164	-1004.351318359375	834.925048828125	104.6479263305664	-1042.433349609375	819.7730712890625	172.1029968261719	-1097.144653320312	994.3309936523438	153.5999450683594	-985.8184814453125	662.9230346679688	116.7120590209961	-974.5164794921875	734.4283447265625	123.2264099121094	-1025.2001953125	737.1847534179688	171.2801513671875	-1138.779663085938	1607.3740234375	-42.40949630737305	-953.0111083984375	1623.561889648438	-137.0505981445312	-976.5110473632812	1620.431030273438	-38.79423141479492	-1132.458984375	1606.934692382812	-186.9032592773438	-1102.738037109375	922.614013671875	-267.5179443359375	-1113.001708984375	927.0691528320312	75.08333587646484	-1005.108642578125	947.8634643554688	33.06057357788086	-981.696533203125	942.6588745117188	-205.8220062255859	-1110.858032226562	463.9531555175781	-247.0851898193359	-1091.33642578125	601.7355346679688	-257.9076843261719	-1219.984375	48.25481414794922	-228.0340881347656	-1167.701293945312	250.7717132568359	-250.5144500732422	-1015.207397460938	44.61271286010742	-163.0938262939453	-1083.975830078125	37.12083435058594	-122.966194152832	-1094.241577148438	42.2269401550293	-237.7157745361328	-1254.35400390625	46.64153289794922	-160.7000885009766	-1135.162109375	462.4720153808594	72.52030181884766	-1064.744995117188	715.5077514648438	86.59386444091797	-1217.880737304688	51.55600357055664	62.81045532226562	-1140.039916992188	345.1603698730469	67.49634552001953	-1030.538208007812	50.46002578735352	-5.221668720245361	-1089.007446289062	44.74032592773438	-41.09389114379883	-1114.092651367188	38.82936477661133	74.01309204101562	-1271.8515625	53.48986053466797	19.49802207946777	-979.6519165039062	649.7255859375	-280.4667663574219	nan	nan	nan	
141	1.4	-1185.845581054688	985.4274291992188	-36.40084838867188	-1185.804809570312	986.2443237304688	-165.6775054931641	-1182.5166015625	1034.61279296875	-98.22373962402344	-960.781982421875	1224.083862304688	-103.7145767211914	-1195.324829101562	1148.011596679688	-114.9292907714844	-1166.7080078125	1398.987670898438	-131.7439117431641	-1008.02392578125	1349.52880859375	-112.1281280517578	-1210.452270507812	1257.104248046875	-66.31341552734375	-1169.525390625	1360.45166015625	-233.2882080078125	-1080.109375	1380.664428710938	-282.8910522460938	-1090.647705078125	1257.843627929688	-348.2135925292969	-1071.440185546875	1053.61865234375	-352.7384643554688	-1138.5048828125	1041.515380859375	-302.8102722167969	-981.073486328125	813.00927734375	-292.31689453125	-1013.978210449219	800.4171142578125	-352.0386657714844	-1055.214477539062	949.505126953125	-355.490234375	-1018.487609863281	730.1801147460938	-343.4211730957031	-969.1052856445312	733.0237426757812	-302.5427856445312	-1124.037231445312	1390.991577148438	35.85574340820312	-1137.752563476562	1327.084106445312	99.54274749755859	-1123.202026367188	1060.62548828125	140.4939117431641	-1155.466918945312	1051.047607421875	51.56079864501953	-1003.749450683594	834.9950561523438	104.3868789672852	-1042.017578125	819.6530151367188	171.697998046875	-1096.701049804688	994.2832641601562	153.0485076904297	-985.0365600585938	662.962646484375	116.3583297729492	-973.8197021484375	734.4923706054688	123.0128631591797	-1024.74658203125	737.2219848632812	170.8824768066406	-1137.376708984375	1607.3740234375	-42.82967376708984	-951.6183471679688	1623.123168945312	-137.455322265625	-975.0901489257812	1619.955322265625	-39.25017547607422	-1131.107543945312	1607.134887695312	-187.3788909912109	-1101.841918945312	922.5399169921875	-268.3541564941406	-1111.7841796875	927.0118408203125	74.19770812988281	-1003.945007324219	947.7454833984375	32.0660400390625	-980.8766479492188	942.5142822265625	-206.9256896972656	-1110.552124023438	463.83740234375	-247.6534118652344	-1090.903198242188	601.6221313476562	-258.5774230957031	-1219.978759765625	48.23666763305664	-228.0694732666016	-1167.49365234375	250.6463317871094	-250.795654296875	-1015.250549316406	44.66263961791992	-163.0864715576172	-1083.94921875	37.16201400756836	-122.9816665649414	-1094.254028320312	42.22354507446289	-237.7370147705078	-1254.34765625	46.65612411499023	-160.7191925048828	-1133.102172851562	462.3918151855469	72.34988403320312	-1063.318359375	715.4820556640625	85.94369506835938	-1217.981201171875	51.42280197143555	63.05963897705078	-1138.395874023438	344.855712890625	67.36967468261719	-1030.646606445312	50.59399795532227	-5.180864334106445	-1089.107788085938	44.91874694824219	-40.98355484008789	-1114.1337890625	38.71309280395508	74.13492584228516	-1271.973999023438	53.50634765625	19.78613090515137	-979.6697387695312	649.4155883789062	-280.7149353027344	nan	nan	nan	
